<?xml version="1.0" encoding="UTF-8"?>
<svg xmlns="http://www.w3.org/2000/svg" viewBox="0 0 100 100" width="100" height="100">
  <path fill="#e84393" d="M50,14c0,0-10,12-10,22c0,5,2,9,5,11c-3,2-5,6-5,11c0,10,10,22,10,22s10-12,10-22c0-5-2-9-5-11c3-2,5-6,5-11
    C60,26,50,14,50,14z M50,64c-2,4-4,8-5,11c-1-3-3-7-5-11c-1-2-2-5-2-7c0-4,3-7,7-7c4,0,7,3,7,7C52,59,51,62,50,64z M50,40
    c-2,0-4-1-5-2c-1-1-2-3-2-5c0-2,1-4,2-5c1-1,3-2,5-2c2,0,4,1,5,2c1,1,2,3,2,5c0,2-1,4-2,5C54,39,52,40,50,40z"/>
</svg>
